<svg id="SvgjsSvg1056" width="288" height="288" xmlns="http://www.w3.org/2000/svg" version="1.1" xmlns:xlink="http://www.w3.org/1999/xlink" xmlns:svgjs="http://svgjs.com/svgjs"><defs id="SvgjsDefs1057"></defs><g id="SvgjsG1058"><svg xmlns="http://www.w3.org/2000/svg" width="288" height="288" viewBox="0 0 64 64"><g data-name="fuel meter" fill="#21c12b" class="color000 svgShape"><path d="M34.177 46.432C33.522 47.379 32 49.722 32 51a3 3 0 006 0c0-1.278-1.522-3.621-2.177-4.568A1.038 1.038 0 0034.177 46.432zM35 52a1 1 0 01-1-1 7.515 7.515 0 011-2.147A7.443 7.443 0 0136 51 1 1 0 0135 52zM29.823 42.432a1.038 1.038 0 00-1.646 0C27.522 43.379 26 45.722 26 47a3 3 0 006 0C32 45.722 30.478 43.379 29.823 42.432zM29 48a1 1 0 01-1-1 7.515 7.515 0 011-2.147A7.443 7.443 0 0130 47 1 1 0 0129 48z" fill="#21c12b" class="color000 svgShape"></path><path d="M32,2A30,30,0,1,0,62,32,30.037,30.037,0,0,0,32,2Zm0,58A28,28,0,1,1,60,32,28.031,28.031,0,0,1,32,60Z" fill="#21c12b" class="color000 svgShape"></path><path d="M32,10A22.219,22.219,0,0,0,16.29,47.71a1.008,1.008,0,0,0,1.42,0l5.81-5.81a1.008,1.008,0,0,0,0-1.42A11.984,11.984,0,0,1,39.1,22.35L35,25.69A7.04,7.04,0,1,0,38.31,29l3.34-4.1a11.942,11.942,0,0,1-1.17,15.58,1.008,1.008,0,0,0,0,1.42l5.81,5.81A1.024,1.024,0,0,0,47,48a1.042,1.042,0,0,0,.71-.29A22.219,22.219,0,0,0,32,10ZM14.22,22.89l5.2,3A13.982,13.982,0,0,0,18.05,31h-6A19.786,19.786,0,0,1,14.22,22.89ZM12.04,33h6a13.854,13.854,0,0,0,1.37,5.12L14.07,41.2A20.823,20.823,0,0,1,12.04,33Zm8.38,6.84a14,14,0,0,0,1,1.33l-4.4,4.4a18.589,18.589,0,0,1-1.97-2.63Zm-.01-15.69-5.19-2.99a20.024,20.024,0,0,1,5.94-5.94l2.99,5.19A14.154,14.154,0,0,0,20.41,24.15ZM31,18.05a13.982,13.982,0,0,0-5.11,1.37l-3-5.2A19.786,19.786,0,0,1,31,12.05ZM32,37a5,5,0,0,1,0-10,5.416,5.416,0,0,1,1.21.15l-3.26,2.66a.462.462,0,0,0-.07.07,3,3,0,1,0,4.24,4.24l.07-.07,2.66-3.26A5.416,5.416,0,0,1,37,32,5,5,0,0,1,32,37Zm.68-4.26a1.009,1.009,0,0,1-1.39-.03A.99.99,0,0,1,31,32a1.014,1.014,0,0,1,.26-.68l7.7-6.28ZM51.95,31h-6a13.982,13.982,0,0,0-1.37-5.11l5.2-3A19.786,19.786,0,0,1,51.95,31ZM38.11,19.42A13.982,13.982,0,0,0,33,18.05v-6a19.786,19.786,0,0,1,8.11,2.17Zm2.58,1.62c-.27-.21-.55-.43-.84-.63l2.99-5.19a20.656,20.656,0,0,1,2.57,1.98c-.01.01-.03.02-.04.03Zm2.9,3.11c-.2-.29-.42-.57-.63-.84l3.81-4.68c.01-.01.02-.03.03-.04a20.656,20.656,0,0,1,1.98,2.57Zm3.39,21.42-4.4-4.4a14,14,0,0,0,1-1.33l5.37,3.1A18.589,18.589,0,0,1,46.98,45.57Zm-2.39-7.45A13.854,13.854,0,0,0,45.96,33h6a20.823,20.823,0,0,1-2.03,8.2Z" fill="#21c12b" class="color000 svgShape"></path></g></svg></g></svg>