<svg id="SvgjsSvg1027" width="288" height="288" xmlns="http://www.w3.org/2000/svg" version="1.1" xmlns:xlink="http://www.w3.org/1999/xlink" xmlns:svgjs="http://svgjs.com/svgjs"><defs id="SvgjsDefs1028"></defs><g id="SvgjsG1029"><svg xmlns="http://www.w3.org/2000/svg" width="288" height="288" viewBox="0 0 512 512"><path d="m304 104a48 48 0 1 0 -48 48 48.054 48.054 0 0 0 48-48zm-80 0a32 32 0 1 1 32 32 32.036 32.036 0 0 1 -32-32z" fill="#21c12b" class="color000 svgShape"></path><path d="m251.412 238.554a8 8 0 0 0 9.176 0 254.588 254.588 0 0 0 41.449-38.305c27.452-31.57 41.963-64.849 41.963-96.249a88 88 0 0 0 -176 0c0 31.4 14.511 64.679 41.963 96.249a254.588 254.588 0 0 0 41.449 38.305zm4.588-206.554a72.081 72.081 0 0 1 72 72c0 57.241-55.483 105.026-72 117.983-16.542-12.941-72-60.632-72-117.983a72.081 72.081 0 0 1 72-72z" fill="#21c12b" class="color000 svgShape"></path><path d="m152 418.091h16v16.74h-16z" transform="rotate(-72.9 159.996 426.374)" fill="#21c12b" class="color000 svgShape"></path><path d="m184 427.937h16.001v16.74h-16.001z" transform="rotate(-72.9 191.97 436.205)" fill="#21c12b" class="color000 svgShape"></path><path d="m216 437.784h16v16.74h-16z" transform="rotate(-72.9 223.99 446.061)" fill="#21c12b" class="color000 svgShape"></path><path d="m466.353 200.354-120-36.923-4.706 15.293 95.153 29.276-180.8 55.63-180.8-55.63 95.15-29.276-4.706-15.293-120 36.923a8 8 0 0 0 -5.644 7.646v216a8 8 0 0 0 5.647 7.646l208 64a8 8 0 0 0 4.706 0l208-64a8 8 0 0 0 5.647-7.646v-216a8 8 0 0 0 -5.647-7.646zm-410.353 18.478 192 59.077v199.259l-192-59.076zm208 258.336v-199.259l192-59.077v199.26z" fill="#21c12b" class="color000 svgShape"></path><path d="m359.63 413.538h16.74v16h-16.74z" transform="rotate(-17.06 368.4 421.417)" fill="#21c12b" class="color000 svgShape"></path><path d="m391.63 403.692h16.74v16.001h-16.74z" transform="rotate(-17.06 400.493 411.615)" fill="#21c12b" class="color000 svgShape"></path><path d="m423.63 393.846h16.74v16h-16.74z" transform="rotate(-17.06 432.406 401.676)" fill="#21c12b" class="color000 svgShape"></path><path d="M192 339.077a8 8 0 008-8v-40a8 8 0 00-5.647-7.646l-80-24.616a8 8 0 00-10.353 7.647v40a8 8 0 005.647 7.646l80 24.616a8.01 8.01 0 002.353.353zm-8-18.832l-64-19.691v-23.26l64 19.691zM408 306.462v-40a8 8 0 00-10.353-7.647l-80 24.616a8 8 0 00-5.647 7.646v40a8 8 0 0010.353 7.647l80-24.616a8 8 0 005.647-7.646zm-16-5.908l-64 19.691v-23.26l64-19.691z" fill="#21c12b" class="color000 svgShape"></path></svg></g></svg>