<svg id="SvgjsSvg1012" width="288" height="288" xmlns="http://www.w3.org/2000/svg" version="1.1" xmlns:xlink="http://www.w3.org/1999/xlink" xmlns:svgjs="http://svgjs.com/svgjs"><defs id="SvgjsDefs1013"></defs><g id="SvgjsG1014"><svg xmlns="http://www.w3.org/2000/svg" width="288" height="288" data-name="Layer 3" viewBox="0 0 64 64"><path d="M57 55h-1v-5a1 1 0 00-1-1h-3v-16a20 20 0 00-40 0v16h-3a1 1 0 00-1 1v5h-1a1 1 0 00-1 1v6a1 1 0 001 1h50a1 1 0 001-1v-6a1 1 0 00-1-1zm-43-22a18 18 0 0136 0v16h-36zm-4 18h44v4h-44zm46 10h-48v-4h48zM31 1h2v7h-2z" fill="#21c12b" class="color000 svgShape"></path><path d="m47.96 11.5h7.07v2h-7.07z" transform="rotate(-45 51.507 12.506)" fill="#21c12b" class="color000 svgShape"></path><path d="m11.5 8.96h2v7.07h-2z" transform="rotate(-45 12.497 12.506)" fill="#21c12b" class="color000 svgShape"></path><path d="M1 31h8v2h-8zM55 31h8v2h-8zM35 23h-6a1 1 0 00-.74.33 1 1 0 00-.26.77l1 10a1 1 0 001 .9h4a1 1 0 001-.9l1-10a1 1 0 00-.26-.77 1 1 0 00-.74-.33zm-1.9 10h-2.2l-.8-8h3.8zM34 37h-4a1 1 0 00-1 1v4a1 1 0 001 1h4a1 1 0 001-1v-4a1 1 0 00-1-1zm-1 4h-2v-2h2z" fill="#21c12b" class="color000 svgShape"></path><path d="m32 19a14 14 0 1 0 14 14 14 14 0 0 0 -14-14zm0 26a12 12 0 1 1 12-12 12 12 0 0 1 -12 12z" fill="#21c12b" class="color000 svgShape"></path></svg></g></svg>